<svg width="18" height="16" viewBox="0 0 18 16" fill="none" xmlns="http://www.w3.org/2000/svg">
<path d="M4.27875 1.7825L3.22125 0.7175C0.75 3.17225 0.75 4.95125 0.75 7.25H1.5L2.25 7.20275C2.25 5.00675 2.25 3.797 4.27875 1.7825ZM14.778 0.7175L13.722 1.7825C15.75 3.797 15.75 5.00675 15.75 7.25L17.25 7.20275C17.25 4.95125 17.25 3.17225 14.778 0.7175ZM9 15.5C9.46447 15.5006 9.91759 15.3564 10.2964 15.0876C10.6751 14.8188 10.9608 14.4386 11.1135 14H6.8865C7.03925 14.4386 7.32486 14.8188 7.70363 15.0876C8.08241 15.3564 8.53553 15.5006 9 15.5ZM14.25 9.9395V6.5C14.25 4.08725 12.6112 2.05475 10.3912 1.4435C10.1715 0.89 9.6345 0.5 9 0.5C8.3655 0.5 7.8285 0.89 7.60875 1.4435C5.388 2.05475 3.75 4.08725 3.75 6.5V9.9395L2.46975 11.2197C2.39997 11.2893 2.34463 11.3719 2.30691 11.4629C2.2692 11.5539 2.24986 11.6515 2.25 11.75V12.5C2.25 12.6989 2.32902 12.8897 2.46967 13.0303C2.61032 13.171 2.80109 13.25 3 13.25H15C15.1989 13.25 15.3897 13.171 15.5303 13.0303C15.671 12.8897 15.75 12.6989 15.75 12.5V11.75C15.7501 11.6515 15.7308 11.5539 15.6931 11.4629C15.6554 11.3719 15.6 11.2893 15.5303 11.2197L14.25 9.9395Z" fill="#00FFFF"/>
</svg>
