<svg width="39" height="39" viewBox="0 0 39 39" fill="none" xmlns="http://www.w3.org/2000/svg">
<circle cx="19.5" cy="19.5" r="19.5" fill="#1A1F31"/>
<circle cx="19.5" cy="19.5" r="19.5" fill="black" fill-opacity="0.2"/>
<path d="M22.125 11.625C22.3571 11.625 22.5796 11.7172 22.7437 11.8813C22.9078 12.0454 23 12.2679 23 12.5V14.25H26.5C26.7321 14.25 26.9546 14.3422 27.1187 14.5063C27.2828 14.6704 27.375 14.8929 27.375 15.125V25.625H29.125V27.375H9.875V25.625H11.625V15.125C11.625 14.8929 11.7172 14.6704 11.8813 14.5063C12.0454 14.3422 12.2679 14.25 12.5 14.25H16V12.5C16 12.2679 16.0922 12.0454 16.2563 11.8813C16.4204 11.7172 16.6429 11.625 16.875 11.625H22.125ZM17.75 16H16V25.625H17.75V16ZM23 16H21.25V25.625H23V16ZM21.25 13.375H17.75V14.25H21.25V13.375Z" fill="#00FFFF"/>
</svg>
