<svg width="20" height="21" viewBox="0 0 20 21" fill="none" xmlns="http://www.w3.org/2000/svg">
<path d="M4.99967 2.1665H12.4997C12.9417 2.1665 13.3656 2.3421 13.6782 2.65466C13.9907 2.96722 14.1663 3.39114 14.1663 3.83317V5.49984H12.4997V3.83317H4.99967V17.1665H12.4997V15.4998H14.1663V17.1665C14.1663 17.6085 13.9907 18.0325 13.6782 18.345C13.3656 18.6576 12.9417 18.8332 12.4997 18.8332H4.99967C4.55765 18.8332 4.13372 18.6576 3.82116 18.345C3.5086 18.0325 3.33301 17.6085 3.33301 17.1665V3.83317C3.33301 3.39114 3.5086 2.96722 3.82116 2.65466C4.13372 2.3421 4.55765 2.1665 4.99967 2.1665Z" fill="#F0F0F0"/>
<path d="M13.4083 13.4918L14.5833 14.6668L18.75 10.5002L14.5833 6.3335L13.4083 7.5085L15.5583 9.66683H7.5V11.3335H15.5583L13.4083 13.4918Z" fill="#F0F0F0"/>
</svg>
