<svg width="27" height="26" viewBox="0 0 27 26" fill="none" xmlns="http://www.w3.org/2000/svg">
<path d="M26.3745 0L14.7891 8.80523L16.9435 3.61606L26.3745 0Z" fill="#E17726"/>
<path d="M0.65266 0.010498L10.0585 3.61681L12.1041 8.87401L0.65266 0.010498ZM21.7115 18.7264L26.8321 18.8265L25.0425 25.071L18.7942 23.304L21.7115 18.7264ZM5.2878 18.7264L8.1942 23.304L1.95646 25.0711L0.177734 18.8265L5.2878 18.7264Z" fill="#E27625"/>
<path d="M11.826 7.53473L12.0352 14.4771L5.77344 14.1845L7.55459 11.4243L7.57716 11.3978L11.826 7.53473ZM15.1085 7.45728L19.4221 11.398L19.4445 11.4244L21.2257 14.1846L14.9652 14.4771L15.1085 7.45728ZM8.37757 18.7464L11.7967 21.4828L7.82491 23.4524L8.37757 18.7464ZM18.6224 18.7459L19.1635 23.4525L15.2029 21.4825L18.6224 18.7459Z" fill="#E27625"/>
<path d="M15.2911 21.2249L19.3101 23.2238L15.5716 25.0488L15.6104 23.8426L15.2911 21.2249ZM11.7086 21.2257L11.4018 23.8229L11.427 25.0474L7.67969 23.2238L11.7086 21.2257Z" fill="#D5BFB2"/>
<path d="M10.5479 15.3833L11.5982 17.6505L8.02246 16.5745L10.5479 15.3833ZM16.4526 15.3835L18.9899 16.5745L15.4025 17.6502L16.4526 15.3835Z" fill="#233447"/>
<path d="M8.65149 18.7234L8.07352 23.6027L4.97559 18.8301L8.65149 18.7234ZM18.3493 18.7235L22.0253 18.8301L18.9158 23.6029L18.3493 18.7235ZM21.3168 13.9087L18.6416 16.7092L16.5789 15.741L15.5914 17.8735L14.9441 14.2065L21.3168 13.9087ZM5.68244 13.9087L12.0564 14.2065L11.409 17.8735L10.4213 15.7414L8.36957 16.7093L5.68244 13.9087Z" fill="#CC6228"/>
<path d="M5.50195 13.334L8.5287 16.4888L8.63353 19.6033L5.50195 13.334ZM21.5012 13.3284L18.364 19.6088L18.4821 16.4888L21.5012 13.3284ZM11.9082 13.5262L12.03 14.3138L12.3311 16.2758L12.1375 22.3018L11.2226 17.461L11.2223 17.4109L11.9082 13.5262ZM15.0903 13.5152L15.7781 17.4109L15.7778 17.461L14.8605 22.314L14.8242 21.1001L14.6811 16.24L15.0903 13.5152Z" fill="#E27525"/>
<path d="M18.7508 16.3633L18.6484 19.0692L15.4555 21.6245L14.81 21.1561L15.5335 17.3281L18.7508 16.3633ZM8.25977 16.3633L11.4659 17.3281L12.1894 21.1561L11.544 21.6245L8.35089 19.069L8.25977 16.3633Z" fill="#F5841F"/>
<path d="M7.06836 22.6262L11.1534 24.6144L11.1361 23.7653L11.4779 23.4571H15.5209L15.8751 23.7643L15.8489 24.6126L19.9081 22.6312L17.9329 24.3078L15.5446 25.9927H11.4451L9.05834 24.3008L7.06836 22.6262Z" fill="#C0AC9D"/>
<path d="M14.9981 20.9602L15.5756 21.3793L15.9141 24.1531L15.4243 23.7283H11.5772L11.0967 24.1617L11.4241 21.3796L12.0018 20.9602H14.9981Z" fill="#161616"/>
<path d="M25.6093 0.243652L27 4.52899L26.1315 8.862L26.7499 9.35199L25.913 10.0078L26.5421 10.5068L25.7092 11.2859L26.2205 11.6662L24.8635 13.294L19.2979 11.6295L19.2497 11.6029L15.2391 8.12783L25.6093 0.243652ZM1.39071 0.243652L11.761 8.12783L7.75027 11.6029L7.70207 11.6295L2.13648 13.294L0.779519 11.6662L1.29041 11.2862L0.458051 10.5068L1.0858 10.0084L0.236355 9.35069L0.878133 8.86038L0 4.52921L1.39071 0.243652Z" fill="#763E1A"/>
<path d="M19.0256 11.2656L24.9226 13.0292L26.8385 19.0943H21.784L18.3014 19.1394L20.8342 14.0685L19.0256 11.2656ZM7.97414 11.2656L6.16524 14.0685L8.69829 19.1394L5.21729 19.0943H0.171875L2.07696 13.0293L7.97414 11.2656ZM17.2318 3.58716L15.5823 8.16305L15.2323 14.3445L15.0983 16.2821L15.0877 21.2316H11.9119L11.9016 16.2914L11.7672 14.3429L11.4171 8.16305L9.76784 3.58716H17.2318Z" fill="#F5841F"/>
</svg>
