<svg width="20" height="21" viewBox="0 0 20 21" fill="none" xmlns="http://www.w3.org/2000/svg">
<path d="M1.66699 3.8275C1.66852 3.60865 1.75608 3.39918 1.91075 3.24435C2.06543 3.08951 2.27481 3.00175 2.49366 3H17.507C17.9637 3 18.3337 3.37083 18.3337 3.8275V17.1725C18.3321 17.3914 18.2446 17.6008 18.0899 17.7557C17.9352 17.9105 17.7258 17.9983 17.507 18H2.49366C2.27434 17.9998 2.06407 17.9125 1.90907 17.7573C1.75406 17.6022 1.66699 17.3918 1.66699 17.1725V3.8275ZM3.33366 4.66667V16.3333H16.667V4.66667H3.33366ZM5.00033 6.33333H10.0003V11.3333H5.00033V6.33333ZM6.66699 8V9.66667H8.33366V8H6.66699ZM5.00033 13H15.0003V14.6667H5.00033V13ZM11.667 6.33333H15.0003V8H11.667V6.33333ZM11.667 9.66667H15.0003V11.3333H11.667V9.66667Z" fill="#F0F0F0"/>
</svg>
