<svg width="39" height="39" viewBox="0 0 39 39" fill="none" xmlns="http://www.w3.org/2000/svg">
<circle cx="19.5" cy="19.5" r="19.5" fill="#1A1F31"/>
<circle cx="19.5" cy="19.5" r="19.5" fill="black" fill-opacity="0.2"/>
<path d="M27.0936 17.9505C27.1662 17.7753 27.1851 17.5826 27.1481 17.3967C27.1111 17.2107 27.0198 17.0399 26.8857 16.9059L22.094 12.1143L20.7389 13.4693L23.8947 16.6251H11.8331V18.5418H26.2081C26.3976 18.5418 26.5829 18.4857 26.7405 18.3804C26.8982 18.2752 27.021 18.1256 27.0936 17.9505ZM11.906 21.0498C11.8334 21.2249 11.8144 21.4177 11.8515 21.6036C11.8885 21.7895 11.9798 21.9603 12.1139 22.0943L16.9056 26.886L18.2607 25.5309L15.1049 22.3751H27.1665V20.4585H12.7915C12.6019 20.4583 12.4166 20.5144 12.2589 20.6197C12.1013 20.7249 11.9784 20.8746 11.906 21.0498Z" fill="#00FFFF"/>
</svg>
