<svg width="37" height="36" viewBox="0 0 37 36" fill="none" xmlns="http://www.w3.org/2000/svg">
<circle cx="18.5252" cy="17.7049" r="17.7049" fill="#2A323A"/>
<g clip-path="url(#clip0_3961_25012)">
<path d="M28.3612 15.7924C26.5053 15.7968 24.695 15.2271 23.1859 14.1637V21.5799C23.1854 22.9534 22.7589 24.2941 21.9634 25.4226C21.168 26.5511 20.0415 27.4137 18.7346 27.8949C17.4277 28.3762 16.0027 28.4533 14.6501 28.1158C13.2976 27.7783 12.0819 27.0424 11.1656 26.0065C10.2494 24.9705 9.6763 23.6839 9.52296 22.3187C9.36961 20.9534 9.64333 19.5747 10.3075 18.3667C10.9717 17.1587 11.9947 16.1792 13.2397 15.559C14.4847 14.9388 15.8924 14.7075 17.2746 14.8961V18.6262C16.6421 18.4304 15.9629 18.4363 15.3341 18.643C14.7052 18.8498 14.1588 19.2469 13.7729 19.7776C13.387 20.3084 13.1813 20.9455 13.1852 21.5982C13.1891 22.2508 13.4024 22.8856 13.7947 23.4118C14.1869 23.938 14.738 24.3287 15.3693 24.5282C16.0006 24.7277 16.6798 24.7257 17.3098 24.5225C17.9399 24.3194 18.4887 23.9254 18.8778 23.397C19.2668 22.8685 19.4763 22.2325 19.4763 21.5799V7.08203H23.1859C23.1833 7.3904 23.2096 7.69836 23.2643 8.002C23.3932 8.67982 23.6612 9.32464 24.052 9.897C24.4427 10.4694 24.948 10.9572 25.5369 11.3308C26.3746 11.8761 27.3569 12.1667 28.3612 12.1665V15.7924Z" fill="#F8F8F8"/>
</g>
<defs>
<clipPath id="clip0_3961_25012">
<rect width="18.8852" height="21.2459" fill="white" transform="translate(9.47559 7.08203)"/>
</clipPath>
</defs>
</svg>
