<svg width="36" height="36" viewBox="0 0 36 36" fill="none" xmlns="http://www.w3.org/2000/svg">
<circle cx="17.7049" cy="17.7049" r="17.7049" fill="#2A323A"/>
<g clip-path="url(#clip0_3961_25014)">
<path d="M27.2596 12.5406C26.6025 12.8318 25.8967 13.0285 25.1547 13.1174C25.9203 12.6593 26.4931 11.9383 26.7662 11.0888C26.0469 11.5161 25.2596 11.8169 24.4386 11.978C23.8865 11.3885 23.1552 10.9978 22.3583 10.8665C21.5614 10.7352 20.7435 10.8707 20.0315 11.2519C19.3194 11.6331 18.7532 12.2388 18.4206 12.9748C18.0881 13.7108 18.0078 14.536 18.1923 15.3223C16.7348 15.2491 15.3089 14.8703 14.0072 14.2103C12.7055 13.5504 11.5572 12.6242 10.6366 11.4917C10.3219 12.0347 10.1409 12.6642 10.1409 13.3346C10.1406 13.9382 10.2892 14.5324 10.5736 15.0648C10.858 15.5971 11.2694 16.051 11.7713 16.3862C11.1893 16.3676 10.62 16.2104 10.111 15.9274V15.9746C10.1109 16.8211 10.4038 17.6415 10.9397 18.2967C11.4757 18.9519 12.2219 19.4014 13.0516 19.5691C12.5116 19.7152 11.9455 19.7368 11.396 19.6321C11.6301 20.3604 12.0861 20.9973 12.7001 21.4536C13.3142 21.91 14.0556 22.1628 14.8205 22.1768C13.522 23.1962 11.9184 23.7491 10.2676 23.7467C9.97517 23.7468 9.683 23.7297 9.39258 23.6955C11.0682 24.7729 13.0188 25.3447 15.0109 25.3425C21.7545 25.3425 25.4411 19.7572 25.4411 14.9131C25.4411 14.7557 25.4372 14.5968 25.4301 14.4394C26.1472 13.9208 26.7661 13.2787 27.258 12.543L27.2596 12.5406Z" fill="#F8F8F8"/>
</g>
<defs>
<clipPath id="clip0_3961_25014">
<rect width="18.8852" height="18.8852" fill="white" transform="translate(8.65527 8.65576)"/>
</clipPath>
</defs>
</svg>
