<svg width="21" height="21" viewBox="0 0 21 21" fill="none" xmlns="http://www.w3.org/2000/svg">
<path d="M14.1094 10.5C13.5002 10.5 12.916 10.742 12.4852 11.1727C12.0545 11.6035 11.8125 12.1877 11.8125 12.7969C11.8125 13.406 12.0545 13.9903 12.4852 14.421C12.916 14.8518 13.5002 15.0938 14.1094 15.0938H18.375V18.375H2.625V7.21875H18.375V10.5H14.1094ZM14.7656 13.7812H14.1094C13.8483 13.7812 13.5979 13.6775 13.4133 13.4929C13.2287 13.3083 13.125 13.0579 13.125 12.7969C13.125 12.5358 13.2287 12.2854 13.4133 12.1008C13.5979 11.9162 13.8483 11.8125 14.1094 11.8125H14.7656C15.0267 11.8125 15.2771 11.9162 15.4617 12.1008C15.6463 12.2854 15.75 12.5358 15.75 12.7969C15.75 13.0579 15.6463 13.3083 15.4617 13.4929C15.2771 13.6775 15.0267 13.7812 14.7656 13.7812ZM13.125 2.625L15.75 5.90625H7.875L13.125 2.625Z" fill="#00FFFF"/>
</svg>
