<svg width="39" height="39" viewBox="0 0 39 39" fill="none" xmlns="http://www.w3.org/2000/svg">
<circle cx="19.5" cy="19.5" r="19.5" fill="#1A1F31"/>
<circle cx="19.5" cy="19.5" r="19.5" fill="black" fill-opacity="0.2"/>
<path d="M19.4997 18.5001C18.9311 18.5001 18.3752 18.6687 17.9024 18.9846C17.4296 19.3005 17.0611 19.7495 16.8435 20.2749C16.6259 20.8002 16.569 21.3783 16.6799 21.936C16.7908 22.4937 17.0647 23.0059 17.4667 23.408C17.8688 23.8101 18.3811 24.0839 18.9388 24.1948C19.4965 24.3058 20.0746 24.2488 20.5999 24.0312C21.1252 23.8136 21.5742 23.4451 21.8902 22.9723C22.2061 22.4996 22.3747 21.9437 22.3747 21.3751C22.3747 20.6126 22.0718 19.8813 21.5326 19.3421C20.9934 18.803 20.2622 18.5001 19.4997 18.5001ZM19.4997 22.3334C19.3101 22.3334 19.1249 22.2772 18.9673 22.1719C18.8097 22.0666 18.6868 21.9169 18.6143 21.7418C18.5418 21.5667 18.5228 21.374 18.5598 21.1881C18.5967 21.0022 18.688 20.8315 18.822 20.6974C18.9561 20.5634 19.1268 20.4721 19.3127 20.4352C19.4986 20.3982 19.6913 20.4172 19.8664 20.4897C20.0415 20.5622 20.1912 20.6851 20.2965 20.8427C20.4018 21.0003 20.458 21.1855 20.458 21.3751C20.458 21.6292 20.357 21.873 20.1773 22.0527C19.9976 22.2324 19.7538 22.3334 19.4997 22.3334ZM18.8193 16.3055C18.9104 16.3927 19.0179 16.4611 19.1355 16.5067C19.2502 16.5574 19.3743 16.5836 19.4997 16.5836C19.6251 16.5836 19.7491 16.5574 19.8638 16.5067C19.9815 16.4611 20.089 16.3927 20.1801 16.3055L22.3747 14.1492C22.5602 13.9637 22.6645 13.7121 22.6645 13.4497C22.6645 13.1873 22.5602 12.9356 22.3747 12.7501C22.1891 12.5645 21.9375 12.4603 21.6751 12.4603C21.4127 12.4603 21.161 12.5645 20.9755 12.7501L20.458 13.3155V9.87508C20.458 9.62092 20.357 9.37716 20.1773 9.19744C19.9976 9.01771 19.7538 8.91675 19.4997 8.91675C19.2455 8.91675 19.0018 9.01771 18.822 9.19744C18.6423 9.37716 18.5413 9.62092 18.5413 9.87508V13.3155L18.0238 12.7501C17.8383 12.5645 17.5867 12.4603 17.3243 12.4603C17.0619 12.4603 16.8102 12.5645 16.6247 12.7501C16.4391 12.9356 16.3349 13.1873 16.3349 13.4497C16.3349 13.7121 16.4391 13.9637 16.6247 14.1492L18.8193 16.3055ZM26.208 21.3751C26.208 21.1855 26.1518 21.0003 26.0465 20.8427C25.9412 20.6851 25.7915 20.5622 25.6164 20.4897C25.4413 20.4172 25.2486 20.3982 25.0627 20.4352C24.8768 20.4721 24.7061 20.5634 24.572 20.6974C24.438 20.8315 24.3467 21.0022 24.3098 21.1881C24.2728 21.374 24.2918 21.5667 24.3643 21.7418C24.4368 21.9169 24.5597 22.0666 24.7173 22.1719C24.8749 22.2772 25.0601 22.3334 25.2497 22.3334C25.5038 22.3334 25.7476 22.2324 25.9273 22.0527C26.107 21.873 26.208 21.6292 26.208 21.3751ZM27.1663 14.6667H24.2913C24.0372 14.6667 23.7934 14.7677 23.6137 14.9474C23.434 15.1272 23.333 15.3709 23.333 15.6251C23.333 15.8792 23.434 16.123 23.6137 16.3027C23.7934 16.4824 24.0372 16.5834 24.2913 16.5834H27.1663C27.4205 16.5834 27.6643 16.6844 27.844 16.8641C28.0237 17.0438 28.1247 17.2876 28.1247 17.5417V25.2084C28.1247 25.4626 28.0237 25.7063 27.844 25.8861C27.6643 26.0658 27.4205 26.1667 27.1663 26.1667H11.833C11.5788 26.1667 11.3351 26.0658 11.1554 25.8861C10.9756 25.7063 10.8747 25.4626 10.8747 25.2084V17.5417C10.8747 17.2876 10.9756 17.0438 11.1554 16.8641C11.3351 16.6844 11.5788 16.5834 11.833 16.5834H14.708C14.9622 16.5834 15.2059 16.4824 15.3857 16.3027C15.5654 16.123 15.6663 15.8792 15.6663 15.6251C15.6663 15.3709 15.5654 15.1272 15.3857 14.9474C15.2059 14.7677 14.9622 14.6667 14.708 14.6667H11.833C11.0705 14.6667 10.3392 14.9696 9.80008 15.5088C9.26091 16.048 8.95801 16.7793 8.95801 17.5417V25.2084C8.95801 25.9709 9.26091 26.7022 9.80008 27.2413C10.3392 27.7805 11.0705 28.0834 11.833 28.0834H27.1663C27.9288 28.0834 28.6601 27.7805 29.1993 27.2413C29.7384 26.7022 30.0413 25.9709 30.0413 25.2084V17.5417C30.0413 16.7793 29.7384 16.048 29.1993 15.5088C28.6601 14.9696 27.9288 14.6667 27.1663 14.6667ZM12.7913 21.3751C12.7913 21.5646 12.8475 21.7499 12.9528 21.9075C13.0582 22.0651 13.2078 22.1879 13.3829 22.2605C13.558 22.333 13.7507 22.352 13.9366 22.315C14.1225 22.278 14.2933 22.1868 14.4273 22.0527C14.5613 21.9187 14.6526 21.7479 14.6896 21.562C14.7266 21.3761 14.7076 21.1835 14.6351 21.0083C14.5625 20.8332 14.4397 20.6836 14.2821 20.5783C14.1245 20.473 13.9392 20.4167 13.7497 20.4167C13.4955 20.4167 13.2518 20.5177 13.072 20.6974C12.8923 20.8772 12.7913 21.1209 12.7913 21.3751Z" fill="#00FFFF"/>
</svg>
