<svg width="37" height="36" viewBox="0 0 37 36" fill="none" xmlns="http://www.w3.org/2000/svg">
<circle cx="18.3455" cy="17.7049" r="17.7049" fill="#2A323A"/>
<path d="M27.2525 13.2254C27.1466 12.8313 26.9392 12.4719 26.6508 12.1831C26.3624 11.8944 26.0032 11.6864 25.6092 11.5801C24.1589 11.1901 18.3454 11.1901 18.3454 11.1901C18.3454 11.1901 12.5318 11.1901 11.0815 11.5781C10.6873 11.684 10.328 11.8919 10.0396 12.1807C9.75113 12.4695 9.54376 12.8291 9.43828 13.2234C9.05029 14.6757 9.05029 17.7049 9.05029 17.7049C9.05029 17.7049 9.05029 20.7341 9.43828 22.1844C9.65198 22.9853 10.2827 23.616 11.0815 23.8297C12.5318 24.2198 18.3454 24.2198 18.3454 24.2198C18.3454 24.2198 24.1589 24.2198 25.6092 23.8297C26.4101 23.616 27.0388 22.9853 27.2525 22.1844C27.6405 20.7341 27.6405 17.7049 27.6405 17.7049C27.6405 17.7049 27.6405 14.6757 27.2525 13.2254ZM16.4988 20.4851V14.9247L21.3123 17.6842L16.4988 20.4851Z" fill="#F8F8F8"/>
</svg>
